<?xml version="1.0" standalone="no"?>
<!DOCTYPE svg PUBLIC "-//W3C//DTD SVG 20010904//EN"
 "http://www.w3.org/TR/2001/REC-SVG-20010904/DTD/svg10.dtd">
<svg version="1.0" xmlns="http://www.w3.org/2000/svg"
 width="260.000000pt" height="260.000000pt" viewBox="0 0 260.000000 260.000000"
 preserveAspectRatio="xMidYMid meet">
<metadata>
Created by potrace 1.11, written by Peter Selinger 2001-2013
</metadata>
<g transform="translate(0.000000,260.000000) scale(0.100000,-0.100000)"
fill="#000000" stroke="none">
<path d="M825 2507 c-14 -22 -13 -29 9 -93 51 -148 158 -430 168 -441 18 -22
66 -15 83 11 15 23 12 35 -71 257 -91 247 -100 270 -118 281 -22 15 -56 8 -71
-15z"/>
<path d="M1777 2483 c-8 -10 -63 -125 -122 -256 -103 -230 -106 -239 -91 -262
18 -27 66 -34 84 -12 17 21 222 479 222 497 0 22 -32 50 -57 50 -11 0 -27 -8
-36 -17z"/>
<path d="M142 1864 c-30 -21 -30 -69 1 -88 12 -7 124 -60 250 -116 201 -91
230 -102 252 -92 33 15 43 58 19 82 -17 17 -474 230 -492 230 -4 0 -18 -7 -30
-16z"/>
<path d="M2206 1717 c-255 -99 -280 -114 -258 -161 6 -14 20 -27 30 -30 13 -4
112 28 268 86 203 76 251 98 261 118 17 35 -9 81 -47 79 -8 0 -123 -42 -254
-92z"/>
<path d="M1215 1687 c-169 -44 -271 -163 -300 -349 l-6 -38 -455 0 -455 0 3
-583 3 -583 27 -41 c15 -22 44 -51 65 -64 l38 -24 1166 0 1165 0 41 27 c22 15
51 44 64 65 l24 38 3 583 3 582 -455 0 -455 0 -6 38 c-14 83 -19 99 -46 153
-36 73 -122 151 -196 179 -71 27 -163 33 -228 17z m201 -126 c81 -36 143 -124
152 -213 l4 -47 -88 -3 -89 -3 257 -148 c142 -82 261 -147 266 -145 4 1 80 45
169 96 88 50 165 92 170 92 20 0 45 -38 38 -59 -4 -13 -59 -51 -150 -103 -80
-45 -143 -83 -142 -84 1 0 66 -38 145 -84 78 -45 143 -87 143 -94 4 -39 -21
-69 -49 -59 -10 3 -74 39 -144 80 -69 40 -129 73 -132 73 -3 0 -6 -73 -6 -163
0 -171 -4 -187 -45 -187 -42 0 -45 15 -45 216 l0 192 -254 146 c-139 80 -256
146 -260 146 -3 0 -6 -132 -6 -292 l0 -293 165 -95 c90 -52 167 -101 170 -109
9 -23 -5 -51 -29 -57 -16 -4 -61 17 -162 75 l-139 81 -3 -168 c-2 -143 -5
-169 -19 -179 -22 -17 -38 -16 -57 3 -13 13 -16 44 -16 180 0 90 -3 164 -6
164 -3 0 -69 -36 -145 -80 -77 -44 -145 -80 -152 -80 -36 0 -49 56 -19 82 9 8
78 50 153 92 75 42 143 82 153 89 15 11 16 41 14 304 l-3 292 -255 -147 -255
-147 -3 -189 c-1 -119 -7 -194 -13 -203 -14 -17 -55 -17 -66 -1 -4 7 -10 86
-13 174 l-5 162 -135 -79 c-74 -43 -142 -78 -151 -78 -23 -1 -52 34 -45 56 3
11 69 55 151 102 127 73 143 85 128 96 -10 6 -76 45 -146 85 -70 40 -130 77
-133 82 -3 5 -3 20 0 33 12 49 39 42 217 -61 l170 -97 33 19 c18 10 130 75
250 144 l217 125 -85 3 -86 3 0 37 c0 53 40 131 89 175 85 76 193 94 297 48z"/>
</g>
</svg>
