<?xml version="1.0" encoding="utf-8"?>
<!-- Generator: Adobe Illustrator 23.0.1, SVG Export Plug-In . SVG Version: 6.00 Build 0)  -->
<svg version="1.1" id="Layer_1" xmlns="http://www.w3.org/2000/svg" xmlns:xlink="http://www.w3.org/1999/xlink" x="0px" y="0px"
	 viewBox="0 0 90 72.9" style="enable-background:new 0 0 90 72.9;" xml:space="preserve">
<g>
	<path d="M17.4,16.3c-0.3-0.5-0.8-0.7-1.3-0.4c-2.3,1.2-4.5,2.8-6.4,4.6c-0.4,0.4-0.4,1,0,1.4c0.2,0.2,0.5,0.3,0.7,0.3
		c0.2,0,0.5-0.1,0.7-0.3c1.8-1.7,3.8-3.1,6-4.3C17.5,17.4,17.7,16.8,17.4,16.3z"/>
	<path d="M31.3,14.4c0.5,0,1-0.4,1-0.9c0-0.5-0.4-1-0.9-1c-2.6-0.1-5.3,0.2-7.9,0.7c-0.5,0.1-0.9,0.6-0.7,1.2c0.1,0.5,0.5,0.8,1,0.8
		c0.1,0,0.1,0,0.2,0C26.3,14.5,28.8,14.3,31.3,14.4z"/>
	<path d="M36.6,70.3c-2,0.5-4.2,0.7-6.3,0.7c-0.4,0-0.7,0-1.1,0c-0.5,0-1,0.4-1,0.9c0,0.5,0.4,1,0.9,1c0.4,0,0.7,0,1.1,0
		c2.3,0,4.6-0.2,6.8-0.8c0.5-0.1,0.9-0.6,0.7-1.2C37.6,70.5,37.1,70.1,36.6,70.3z"/>
	<path d="M21.9,69.7c-2.4-0.7-4.6-1.8-6.7-3.1c-0.5-0.3-1.1-0.2-1.3,0.3c-0.3,0.5-0.1,1.1,0.3,1.3c2.2,1.4,4.7,2.5,7.2,3.3
		c0.1,0,0.2,0,0.3,0c0.4,0,0.8-0.3,0.9-0.7C22.7,70.4,22.4,69.9,21.9,69.7z"/>
	<path d="M2,42.6c0-0.3,0-0.7,0-1c0-0.5-0.4-1-0.9-1c-0.6,0-1,0.4-1,0.9c0,0.4,0,0.7,0,1.1c0,2.3,0.3,4.5,0.8,6.7
		c0.1,0.5,0.5,0.8,1,0.8c0.1,0,0.1,0,0.2,0C2.5,50,2.8,49.5,2.7,49C2.2,46.9,2,44.8,2,42.6z"/>
	<path d="M5.2,55.9c-0.3-0.5-0.8-0.7-1.3-0.4c-0.5,0.3-0.7,0.8-0.4,1.3c1.2,2.3,2.8,4.5,4.6,6.4c0.2,0.2,0.5,0.3,0.7,0.3
		c0.2,0,0.5-0.1,0.7-0.3c0.4-0.4,0.4-1,0.1-1.4C7.8,60.1,6.4,58.1,5.2,55.9z"/>
	<path d="M6,26.3c-0.5-0.3-1.1-0.1-1.3,0.3c-1.4,2.2-2.5,4.7-3.3,7.2C1.2,34.3,1.5,34.8,2,35c0.1,0,0.2,0,0.3,0
		c0.4,0,0.8-0.3,0.9-0.7C3.9,32,5,29.7,6.3,27.6C6.6,27.1,6.4,26.5,6,26.3z"/>
	<polygon points="55.6,8.5 71.5,4.3 55.6,0 55.6,3.3 44,3.3 44,5.2 55.6,5.2 	"/>
	<polygon points="36.9,5.2 58.5,5.2 58.5,3.3 36.9,3.3 36.9,0 21,4.3 36.9,8.5 	"/>
	<path d="M60.7,13.4c-5.2,0-10.1,1.4-14.3,3.7c0,0-0.1-0.1-0.1-0.1c-2.2-1.4-4.7-2.5-7.2-3.3c-0.5-0.2-1.1,0.1-1.2,0.6
		c-0.2,0.5,0.1,1.1,0.6,1.2c2.1,0.6,4.1,1.5,6,2.6c-7.9,5.2-13.1,14.2-13.1,24.4c0,10.2,5.2,19.2,13.1,24.4
		c-0.4,0.2-0.7,0.4-1.1,0.6c-0.5,0.3-0.7,0.8-0.4,1.3c0.2,0.3,0.5,0.5,0.9,0.5c0.2,0,0.3,0,0.5-0.1c0.7-0.4,1.4-0.8,2-1.2
		c4.2,2.4,9.1,3.7,14.3,3.7C76.9,71.9,90,58.8,90,42.6C90,26.5,76.9,13.4,60.7,13.4z M60.7,68.3C46.5,68.3,35,56.8,35,42.6
		C35,28.5,46.5,17,60.7,17c14.2,0,25.7,11.5,25.7,25.7C86.4,56.8,74.9,68.3,60.7,68.3z"/>
	<circle cx="60.7" cy="20.2" r="2.3"/>
	<circle cx="60.7" cy="65.1" r="2.3"/>
	<circle cx="38.3" cy="42.6" r="2.3"/>
	<circle cx="83.2" cy="42.6" r="2.3"/>
	<path d="M72.5,41.2h-9.3c-0.3-0.5-0.7-0.8-1.2-1.1V24.6c0-0.8-0.6-1.4-1.3-1.4c-0.7,0-1.3,0.6-1.3,1.4v15.5
		c-0.9,0.5-1.6,1.4-1.6,2.5c0,1.6,1.3,2.9,2.9,2.9c1.1,0,2-0.6,2.5-1.4h9.3c0.7,0,1.3-0.6,1.3-1.4S73.2,41.2,72.5,41.2z"/>
</g>
</svg>
