<?xml version="1.0" encoding="utf-8"?>
<!-- Generator: Adobe Illustrator 23.0.1, SVG Export Plug-In . SVG Version: 6.00 Build 0)  -->
<svg version="1.1" id="Layer_1" xmlns="http://www.w3.org/2000/svg" xmlns:xlink="http://www.w3.org/1999/xlink" x="0px" y="0px"
	 viewBox="0 0 128 128" style="enable-background:new 0 0 128 128;" xml:space="preserve">
<style type="text/css">
	.st0{fill:#FFFFFF;}
</style>
<g>
	<g>
		<path class="st0" d="M67.2,128c-17.9,0-34.8-7-47.5-19.7C7,95.6,0,78.8,0,60.8C0,42.9,7,26,19.7,13.3c5.4-5.4,11.6-9.8,18.5-13.1
			C39-0.2,39.9,0,40.5,0.6c0.6,0.6,0.8,1.5,0.4,2.3c-11.5,24.1-6.6,53,12.3,71.9C65.2,86.7,81,93.3,97.9,93.3
			c9.4,0,18.8-2.1,27.2-6.2c0.8-0.4,1.7-0.2,2.3,0.4c0.6,0.6,0.8,1.5,0.4,2.3c-3.3,6.9-7.7,13.1-13.1,18.5
			C102,121,85.1,128,67.2,128z M35,6.4c-4.6,2.7-8.8,5.9-12.5,9.7C10.6,28.1,4,43.9,4,60.8s6.6,32.7,18.5,44.7
			C34.4,117.4,50.3,124,67.2,124c16.9,0,32.7-6.6,44.7-18.5c3.8-3.8,7-8,9.7-12.5c-7.5,2.8-15.6,4.3-23.7,4.3
			c-17.9,0-34.8-7-47.5-19.7C31.7,58.9,25.8,30.9,35,6.4z"/>
	</g>
</g>
</svg>
