<?xml version="1.0" encoding="utf-8"?>
<!-- Generator: Adobe Illustrator 23.0.1, SVG Export Plug-In . SVG Version: 6.00 Build 0)  -->
<svg version="1.1"
	 id="Layer_1" xmlns:cc="http://creativecommons.org/ns#" xmlns:dc="http://purl.org/dc/elements/1.1/" xmlns:inkscape="http://www.inkscape.org/namespaces/inkscape" xmlns:rdf="http://www.w3.org/1999/02/22-rdf-syntax-ns#" xmlns:sodipodi="http://sodipodi.sourceforge.net/DTD/sodipodi-0.dtd" xmlns:svg="http://www.w3.org/2000/svg"
	 xmlns="http://www.w3.org/2000/svg" xmlns:xlink="http://www.w3.org/1999/xlink" x="0px" y="0px" viewBox="0 0 94 94"
	 style="enable-background:new 0 0 94 94;" xml:space="preserve">
<g transform="translate(0,-952.36218)">
	<path d="M47,952.4c-1.1,0-2,0.9-2,2v18c0,1.1,0.9,2,2,2s2-0.9,2-2v-18C49,953.3,48.1,952.4,47,952.4z M15.2,965.5
		c-0.5,0-1,0.2-1.4,0.6c-0.8,0.8-0.8,2,0,2.8l12.7,12.7c0.8,0.8,2,0.8,2.8,0c0.8-0.8,0.8-2,0-2.8l-12.7-12.7
		C16.2,965.8,15.7,965.5,15.2,965.5z M78.8,965.5c-0.5,0-1,0.2-1.4,0.6l-12.7,12.7c-0.8,0.8-0.8,2,0,2.8c0.8,0.8,2,0.8,2.8,0
		L80.2,969c0.8-0.8,0.8-2,0-2.8C79.8,965.8,79.3,965.5,78.8,965.5z M47,985.4c-7.7,0-14,6.3-14,14c0,7.7,6.3,14,14,14s14-6.3,14-14
		C61,991.7,54.7,985.4,47,985.4z M47,989.4c5.5,0,10,4.5,10,10c0,5.5-4.5,10-10,10c-5.5,0-10-4.5-10-10
		C37,993.8,41.5,989.4,47,989.4z M2,997.4c-1.1,0-2,0.9-2,2c0,1.1,0.9,2,2,2h18c1.1,0,2-0.9,2-2c0-1.1-0.9-2-2-2H2z M74,997.4
		c-1.1,0-2,0.9-2,2c0,1.1,0.9,2,2,2h18c1.1,0,2-0.9,2-2c0-1.1-0.9-2-2-2H74z M27.9,1016.5c-0.5,0-1,0.2-1.4,0.6l-12.7,12.7
		c-0.8,0.8-0.8,2,0,2.8c0.8,0.8,2,0.8,2.8,0l12.7-12.7c0.8-0.8,0.8-2,0-2.8C28.9,1016.7,28.4,1016.5,27.9,1016.5L27.9,1016.5z
		 M66.1,1016.5c-0.5,0-1,0.2-1.4,0.6c-0.8,0.8-0.8,2,0,2.8l12.7,12.7c0.8,0.8,2,0.8,2.8,0c0.8-0.8,0.8-2,0-2.8L67.5,1017
		C67.1,1016.7,66.6,1016.5,66.1,1016.5L66.1,1016.5z M47,1024.4c-1.1,0-2,0.9-2,2v18c0,1.1,0.9,2,2,2s2-0.9,2-2v-18
		C49,1025.3,48.1,1024.4,47,1024.4z"/>
</g>
</svg>
