<?xml version="1.0" encoding="utf-8"?>
<!-- Generator: Adobe Illustrator 23.0.1, SVG Export Plug-In . SVG Version: 6.00 Build 0)  -->
<svg version="1.1" id="Layer_1" xmlns="http://www.w3.org/2000/svg" xmlns:xlink="http://www.w3.org/1999/xlink" x="0px" y="0px"
	 viewBox="0 0 112 112" style="enable-background:new 0 0 112 112;" xml:space="preserve">
<g>
	<g>
		<path d="M56,19.7c1.1,0,2-0.9,2-2V2c0-1.1-0.9-2-2-2c-1.1,0-2,0.9-2,2v15.7C54,18.8,54.9,19.7,56,19.7z"/>
		<path d="M92.3,56c0,1.1,0.9,2,2,2H110c1.1,0,2-0.9,2-2s-0.9-2-2-2H94.3C93.2,54,92.3,54.9,92.3,56z"/>
		<path d="M2,58h15.7c1.1,0,2-0.9,2-2s-0.9-2-2-2H2c-1.1,0-2,0.9-2,2S0.9,58,2,58z"/>
		<path d="M83.1,30.9c0.5,0,1-0.2,1.4-0.6l11.1-11.1c0.8-0.8,0.8-2,0-2.8c-0.8-0.8-2-0.8-2.8,0L81.7,27.5c-0.8,0.8-0.8,2,0,2.8
			C82.1,30.7,82.6,30.9,83.1,30.9z"/>
		<path d="M27.5,30.3c0.4,0.4,0.9,0.6,1.4,0.6s1-0.2,1.4-0.6c0.8-0.8,0.8-2,0-2.8L19.2,16.4c-0.8-0.8-2-0.8-2.8,0
			c-0.8,0.8-0.8,2,0,2.8L27.5,30.3z"/>
	</g>
</g>
<g>
	<g>
		<path d="M56,92.3c-1.1,0-2,0.9-2,2V110c0,1.1,0.9,2,2,2c1.1,0,2-0.9,2-2V94.3C58,93.2,57.1,92.3,56,92.3z"/>
		<path d="M2,54c-1.1,0-2,0.9-2,2c0,1.1,0.9,2,2,2h15.7c1.1,0,2-0.9,2-2c0-1.1-0.9-2-2-2"/>
		<path d="M28.9,81.1c-0.5,0-1,0.2-1.4,0.6L16.4,92.8c-0.8,0.8-0.8,2,0,2.8c0.8,0.8,2,0.8,2.8,0l11.1-11.1c0.8-0.8,0.8-2,0-2.8
			C29.9,81.3,29.4,81.1,28.9,81.1z"/>
		<path d="M84.5,81.7c-0.4-0.4-0.9-0.6-1.4-0.6s-1,0.2-1.4,0.6c-0.8,0.8-0.8,2,0,2.8l11.1,11.1c0.8,0.8,2,0.8,2.8,0
			c0.8-0.8,0.8-2,0-2.8L84.5,81.7z"/>
	</g>
</g>
<path d="M56,27c-16,0-29,13-29,29c0,16,13,29,29,29s29-13,29-29C85,40,72,27,56,27z M56,81c-13.9,0-25.1-11.2-25.1-25.1
	C30.9,42,42.1,30.8,56,30.8S81.1,42,81.1,55.9C81.1,69.8,69.9,81,56,81z"/>
</svg>
