<?xml version="1.0" encoding="utf-8"?>
<!-- Generator: Adobe Illustrator 23.0.1, SVG Export Plug-In . SVG Version: 6.00 Build 0)  -->
<svg version="1.1" id="Layer_1" xmlns="http://www.w3.org/2000/svg" xmlns:xlink="http://www.w3.org/1999/xlink" x="0px" y="0px"
	 viewBox="0 0 89.8 78.4" style="enable-background:new 0 0 89.8 78.4;" xml:space="preserve">
<path d="M1.7,41.1c4.2,0,8.3,0,12.5,0c-2,3.5-4.1,7.1-6.1,10.6c-1.1,2,1.9,3.7,3,1.8c2.4-4.1,4.8-8.3,7.1-12.4c7.9,0,15.8,0,23.7,0
	c-3.9,6.7-7.8,13.4-11.6,20.2c-4.9,0-9.8,0-14.7,0c-2.3,0-2.3,3.5,0,3.5c4.2,0,8.5,0,12.7,0c-0.3,0.5-0.6,1.1-0.9,1.6
	c-1.8,3.1-3.6,6.3-5.4,9.4c-1.1,2,1.9,3.7,3,1.8c2.1-3.6,4.2-7.2,6.3-10.8c2,3.5,4.1,7.1,6.1,10.6c1.1,2,4.2,0.2,3-1.8
	c-2.4-4.1-4.8-8.2-7.1-12.4c4-6.8,7.9-13.7,11.9-20.5C49,49.5,52.9,56.2,56.8,63c-2.5,4.3-4.9,8.5-7.4,12.8c-1.1,2,1.9,3.7,3,1.8
	c2.1-3.7,4.2-7.3,6.4-11c0.3,0.5,0.6,1.1,0.9,1.6c1.8,3.1,3.6,6.3,5.4,9.4c1.1,2,4.2,0.2,3-1.8c-2.1-3.6-4.2-7.2-6.2-10.8
	c4.1,0,8.2,0,12.3,0c2.3,0,2.3-3.5,0-3.5c-4.8,0-9.5,0-14.3,0C56,54.7,52.1,48,48.2,41.2c7.9,0,15.7,0,23.6,0
	c2.4,4.2,4.8,8.3,7.2,12.5c1.1,2,4.2,0.2,3-1.8c-2.1-3.6-4.1-7.1-6.2-10.7c0.5,0,0.9,0,1.4,0c3.6,0,7.2,0,10.9,0
	c2.3,0,2.3-3.5,0-3.5c-4.1,0-8.2,0-12.4,0c2.1-3.6,4.2-7.3,6.3-10.9c1.1-2-1.9-3.7-3-1.8c-2.4,4.2-4.9,8.5-7.3,12.7
	c-7.9,0-15.8,0-23.7,0c4-6.9,8-13.8,12-20.7c4.8,0,9.6,0,14.4,0c2.3,0,2.3-3.5,0-3.5c-4.1,0-8.2,0-12.4,0c0.2-0.4,0.5-0.8,0.7-1.2
	c1.8-3.1,3.6-6.3,5.4-9.4c1.1-2-1.9-3.7-3-1.8C63,4.7,61,8.2,58.9,11.8c-2.1-3.6-4.2-7.3-6.3-10.9c-1.1-2-4.2-0.2-3,1.8
	c2.4,4.2,4.9,8.4,7.3,12.7C53,22.2,49,29,45.1,35.9c-4-6.9-7.9-13.8-11.9-20.7C35.6,11,38,6.9,40.4,2.7c1.1-2-1.9-3.7-3-1.8
	c-2.1,3.6-4.1,7.1-6.2,10.7c-0.2-0.4-0.5-0.8-0.7-1.2c-1.8-3.1-3.6-6.3-5.4-9.4c-1.1-2-4.2-0.2-3,1.8c2.1,3.6,4.1,7.1,6.2,10.7
	c-4.2,0-8.4,0-12.6,0c-2.3,0-2.3,3.5,0,3.5c4.9,0,9.8,0,14.6,0c4,6.9,8,13.8,12,20.7c-7.9,0-15.8,0-23.7,0
	c-2.5-4.3-4.9-8.5-7.4-12.8c-1.1-2-4.2-0.2-3,1.8c2.1,3.7,4.2,7.3,6.4,11c-0.6,0-1.3,0-1.9,0c-3.6,0-7.2,0-10.9,0
	C-0.6,37.6-0.6,41.1,1.7,41.1z"/>
</svg>
